<svg width="294" height="111" viewBox="0 0 294 111" fill="none" xmlns="http://www.w3.org/2000/svg">
<path fill-rule="evenodd" clip-rule="evenodd" d="M47.8077 15.2724C48.5983 15.2724 49.361 15.1235 50.0958 14.8166C50.8213 14.5097 51.463 14.0725 52.0304 13.5145C52.5885 12.9471 53.0163 12.3053 53.314 11.5705C53.6209 10.8264 53.7697 10.0637 53.7697 9.26384C53.7697 8.47324 53.6209 7.71055 53.3233 6.96646C53.0163 6.23167 52.5885 5.58059 52.0304 5.02252C51.4723 4.45516 50.8306 4.018 50.0958 3.72037C49.3703 3.41343 48.6076 3.25531 47.817 3.25531C47.0264 3.25531 46.273 3.40413 45.5382 3.71107C44.8127 4.018 44.1617 4.44585 43.6036 5.01322C43.0455 5.57129 42.6084 6.22237 42.3107 6.95716C42.0038 7.69195 41.855 8.45464 41.855 9.25454C41.855 10.0544 42.0038 10.8171 42.3014 11.5519C42.6084 12.2867 43.0362 12.9378 43.5943 13.5051C44.1524 14.0725 44.8034 14.5004 45.5289 14.8073C46.2637 15.1142 47.0171 15.2724 47.8077 15.2724Z" fill="#F9ED32" fill-opacity="0.78"/>
<path fill-rule="evenodd" clip-rule="evenodd" d="M76.6873 19.9044C79.9892 23.7644 82.0634 28.201 82.9284 33.2143C84.1282 40.339 82.2866 46.9335 83.5795 51.3608C83.8864 52.356 84.2863 53.3047 84.7979 54.2162C84.1933 54.5697 83.5702 54.8859 82.9284 55.165C82.2866 55.4533 81.6355 55.6951 80.9658 55.8998C80.2962 56.1137 79.6172 56.2811 78.9289 56.402C78.2406 56.5322 77.5523 56.6252 76.8547 56.6717C76.1572 56.7183 75.4596 56.7276 74.762 56.6903C74.0551 56.6624 73.3668 56.588 72.6785 56.4764C71.981 56.3648 71.302 56.2067 70.6323 56.0207C69.9533 55.8253 69.2929 55.5928 68.6512 55.3324C68.0001 55.0627 67.3769 54.7557 66.763 54.4116C66.1492 54.0767 65.5539 53.6954 64.9865 53.2861C64.4191 52.8769 63.8704 52.4397 63.3588 51.9654C62.838 51.491 62.345 50.9981 61.8799 50.4679C61.4242 49.9377 60.987 49.3797 60.5964 48.803C60.1964 48.2263 59.8244 47.6218 59.4988 46.9986C59.164 46.3847 58.8757 45.7429 58.6152 45.0918C58.3548 44.4315 58.1409 43.7618 57.9549 43.0828C57.7688 42.4038 57.6293 41.7155 57.527 41.018C57.4247 40.3204 57.3596 39.6228 57.3317 38.9159C57.3131 38.209 57.3317 37.5021 57.3875 36.8045C57.4433 36.0977 57.5363 35.4001 57.6758 34.7118C57.806 34.0235 57.9828 33.3445 58.1967 32.6655C58.4106 31.9959 58.6617 31.3448 58.9501 30.703C59.2384 30.0519 59.564 29.4288 59.9267 28.8242C60.2801 28.2196 60.6708 27.6429 61.0986 27.0849C61.5265 26.5268 61.9822 25.9873 62.4659 25.4851C62.9589 24.9735 63.4704 24.4992 64.0099 24.0527C64.5494 23.6062 65.1167 23.1877 65.7027 22.8063C66.2887 22.425 66.9025 22.0809 67.5257 21.7739C68.1582 21.4577 68.8 21.188 69.451 20.9461C70.1114 20.7136 70.7811 20.509 71.4694 20.3509C72.1484 20.1927 72.8367 20.0718 73.5342 19.9881C74.2225 19.9137 74.9201 19.8765 75.6177 19.8765C75.9618 19.8765 76.3246 19.8858 76.6873 19.9044Z" fill="#662D91" fill-opacity="0.78"/>
<mask id="mask0_5_463" style="mask-type:luminance" maskUnits="userSpaceOnUse" x="42" y="31" width="50" height="53">
<path d="M42.6826 31.1123H91.0764V83.4962H42.6826V31.1123Z" fill="white"/>
</mask>
<g mask="url(#mask0_5_463)">
<path fill-rule="evenodd" clip-rule="evenodd" d="M83.2818 36.3488C83.6632 42.255 82.4819 47.5939 83.5794 51.3794C85.4676 57.853 93.82 63.7127 89.9135 67.0425C88.6858 68.0377 86.5558 68.1028 85.3095 69.0795C83.3283 70.642 84.6863 72.3349 84.863 73.5533C84.9467 74.13 84.4258 75.0601 82.7051 76.1855C84.0073 77.1528 83.8864 77.962 83.4213 78.7154C82.1564 79.5897 80.817 80.3431 79.4218 80.9756C78.0174 81.6081 76.5757 82.1103 75.0782 82.4731C73.59 82.8451 72.0739 83.0683 70.5486 83.1614C69.0139 83.2544 67.4885 83.2079 65.9631 83.0125C64.4377 82.8265 62.9402 82.501 61.48 82.0452C60.0104 81.5802 58.5966 80.9942 57.2387 80.2687C55.8807 79.5525 54.5971 78.7154 53.388 77.7667C52.1788 76.8087 51.0627 75.7577 50.0489 74.595C49.0258 73.4417 48.1235 72.2046 47.3237 70.8839C46.5238 69.5538 45.8541 68.1772 45.3053 66.7263C44.7565 65.2846 44.3473 63.7964 44.0683 62.2803C43.7799 60.7549 43.6404 59.2203 43.6311 57.6763C43.6311 56.1323 43.7613 54.5976 44.0311 53.0722C44.3008 51.5468 44.71 50.068 45.2495 48.617C45.7797 47.166 46.4493 45.7801 47.2306 44.4501C48.0212 43.12 48.9234 41.8737 49.9373 40.711C50.9418 39.5484 52.0486 38.4881 53.2578 37.5207C54.4576 36.5627 55.7319 35.7163 57.0898 34.9908C58.4478 34.2653 59.8523 33.6608 61.3125 33.1957C62.7728 32.7214 64.2703 32.3865 65.7957 32.1912C67.3118 31.9866 68.8465 31.9308 70.3718 32.0145C71.9065 32.0889 73.4226 32.3121 74.9108 32.6656C76.4083 33.0283 77.8593 33.512 79.2637 34.1351C80.6682 34.7583 82.0076 35.5024 83.2818 36.3674V36.3488Z" fill="#92278F" fill-opacity="0.78"/>
</g>
<mask id="mask1_5_463" style="mask-type:luminance" maskUnits="userSpaceOnUse" x="28" y="59" width="53" height="52">
<path d="M28.3962 59.6853H80.7802V110.721H28.3962V59.6853Z" fill="white"/>
</mask>
<g mask="url(#mask1_5_463)">
<path fill-rule="evenodd" clip-rule="evenodd" d="M77.8411 92.9554C68.1865 96.9177 55.258 83.6264 53.5187 110.721C47.2404 106.572 40.5901 103.159 33.5677 100.489C32.9818 99.6336 32.4609 98.7407 31.9958 97.8106C31.5215 96.8898 31.1122 95.9411 30.7681 94.9645C30.4147 93.9878 30.1263 92.9926 29.8938 91.9788C29.6706 90.965 29.5031 89.9418 29.4101 88.9094C29.3078 87.8677 29.2706 86.8353 29.2985 85.7935C29.3264 84.7611 29.4194 83.7287 29.5776 82.6963C29.7357 81.6731 29.9589 80.6593 30.2379 79.6641C30.5263 78.6596 30.8704 77.683 31.2704 76.7343C31.6796 75.7762 32.1354 74.8461 32.6562 73.9532C33.1771 73.051 33.7538 72.1953 34.3769 71.3675C35.0001 70.5397 35.6791 69.7584 36.4046 69.0236C37.1208 68.2795 37.8928 67.5912 38.702 66.9495C39.5112 66.3077 40.3576 65.7124 41.2412 65.173C42.1248 64.6428 43.0363 64.1591 43.9757 63.7406C44.9151 63.322 45.8824 62.9593 46.8683 62.6616C47.8543 62.364 48.8588 62.1222 49.8726 61.9548C50.8864 61.778 51.9096 61.6664 52.942 61.6292C53.9744 61.5827 54.9975 61.6013 56.03 61.685C57.0531 61.778 58.0762 61.9269 59.0807 62.1408C60.0945 62.3547 61.0805 62.6337 62.0571 62.9686C63.0337 63.3127 63.9824 63.7127 64.9032 64.1684C65.8333 64.6242 66.7262 65.145 67.582 65.7124C68.447 66.2891 69.2655 66.9123 70.0468 67.5819C70.828 68.2609 71.5721 68.9864 72.2604 69.7491C72.958 70.5211 73.5998 71.3303 74.1951 72.1767C74.781 73.0324 75.3205 73.916 75.8041 74.8275C76.2878 75.7483 76.7157 76.6877 77.0784 77.6644C77.4412 78.6317 77.7481 79.6269 77.9899 80.6314C78.2317 81.6452 78.4085 82.6684 78.5294 83.7008C78.641 84.7332 78.6968 85.7656 78.6875 86.8074C78.6689 87.8398 78.5945 88.8722 78.455 89.9046C78.3155 90.9371 78.1108 91.9509 77.8411 92.9554Z" fill="#007FC6" fill-opacity="0.78"/>
</g>
<mask id="mask2_5_463" style="mask-type:luminance" maskUnits="userSpaceOnUse" x="33" y="83" width="32" height="28">
<path d="M33.1584 83.4962H64.1126V110.721H33.1584V83.4962Z" fill="white"/>
</mask>
<g mask="url(#mask2_5_463)">
<path fill-rule="evenodd" clip-rule="evenodd" d="M63.666 93.095C58.5597 93.3089 54.4486 96.2666 53.5185 110.721C47.2774 106.591 40.6643 103.196 33.6792 100.536C33.7257 98.7593 34.0512 97.0479 34.6465 95.383C35.2511 93.7181 36.1068 92.2021 37.2043 90.8255C38.3019 89.4396 39.5947 88.277 41.0736 87.319C42.5525 86.3702 44.143 85.682 45.8544 85.2634C47.5565 84.8356 49.2865 84.7053 51.0351 84.8542C52.7837 85.003 54.4672 85.4308 56.0763 86.1377C57.6854 86.8446 59.1364 87.7933 60.4385 88.9839C61.7407 90.1744 62.8103 91.5417 63.666 93.095Z" fill="#01A6E6" fill-opacity="0.78"/>
</g>
<path fill-rule="evenodd" clip-rule="evenodd" d="M86.9933 68.2517C86.3888 68.4284 85.8307 68.7074 85.3098 69.0702C83.3287 70.6328 84.6866 72.3163 84.8634 73.5347C84.9471 74.1114 84.4262 75.0415 82.7055 76.1669C84.6959 77.6458 83.3566 78.7712 82.5567 79.8595C78.8455 82.5568 84.0077 88.4072 77.8875 92.9369C71.7023 95.504 64.187 90.9743 59.1086 94.4529C58.9504 93.5135 58.8388 92.5741 58.8016 91.6254C58.7551 90.6767 58.7644 89.728 58.8388 88.7793C58.9132 87.8305 59.0434 86.8911 59.2295 85.961C59.4155 85.0309 59.6573 84.1194 59.955 83.2172C60.2619 82.315 60.6153 81.4407 61.0246 80.585C61.4338 79.7293 61.8896 78.9015 62.4012 78.1016C62.9127 77.3017 63.4708 76.539 64.0754 75.8042C64.6799 75.0787 65.3217 74.3904 66.01 73.7393C66.7076 73.0976 67.4331 72.493 68.1958 71.9349C68.9584 71.3769 69.749 70.8746 70.5768 70.4188C71.4046 69.9538 72.251 69.5538 73.1347 69.2004C74.009 68.8562 74.9019 68.5586 75.8134 68.3168C76.7249 68.075 77.6457 67.8982 78.5851 67.7773C79.5152 67.6471 80.4546 67.582 81.3941 67.582C82.3428 67.5727 83.2822 67.6285 84.2123 67.7401C85.1517 67.8517 86.0818 68.0191 86.9933 68.2517Z" fill="#2063B2" fill-opacity="0.78"/>
<path fill-rule="evenodd" clip-rule="evenodd" d="M15.1888 68.5399C16.3607 68.5399 17.4862 68.3167 18.5744 67.8703C19.6533 67.4145 20.6114 66.7727 21.4392 65.9356C22.267 65.1078 22.9087 64.1405 23.3552 63.0523C23.8016 61.964 24.0249 60.8293 24.0249 59.6481C24.0249 58.4668 23.8016 57.3321 23.3552 56.2439C22.9087 55.1556 22.267 54.1883 21.4392 53.3512C20.6114 52.5234 19.6533 51.8723 18.5744 51.4259C17.4955 50.9701 16.37 50.7469 15.1981 50.7469C14.0262 50.7469 12.9007 50.9701 11.8125 51.4259C10.7336 51.8816 9.77555 52.5234 8.94775 53.3605C8.11995 54.1883 7.48747 55.1556 7.04102 56.2439C6.59456 57.3321 6.37134 58.4668 6.37134 59.6481C6.37134 60.8293 6.59456 61.964 7.04102 63.0523C7.49677 64.1405 8.12925 65.0985 8.95705 65.9356C9.78485 66.7634 10.7429 67.4052 11.8218 67.861C12.9007 68.3167 14.0262 68.5399 15.1888 68.5399Z" fill="#12BCBC" fill-opacity="0.78"/>
<path fill-rule="evenodd" clip-rule="evenodd" d="M33.6795 80.929C34.7491 80.929 35.7815 80.7337 36.7674 80.3151C37.7534 79.9059 38.6277 79.3292 39.3904 78.5665C40.1437 77.8038 40.7297 76.9295 41.139 75.9343C41.5482 74.9391 41.7528 73.9067 41.7621 72.8277C41.7621 71.7488 41.5575 70.7164 41.1483 69.7212C40.7483 68.7259 40.1623 67.8423 39.409 67.0796C38.6556 66.3169 37.7813 65.731 36.7953 65.3217C35.8094 64.9032 34.7863 64.6985 33.7167 64.6985C32.647 64.6985 31.6146 64.9032 30.6287 65.3124C29.6428 65.7217 28.7685 66.3076 28.0151 67.0703C27.2617 67.833 26.6757 68.7073 26.2665 69.7026C25.8572 70.6978 25.6526 71.7395 25.6526 72.8091C25.6526 73.8881 25.8572 74.9205 26.2665 75.9157C26.6757 76.9016 27.2524 77.7759 28.0058 78.5386C28.7592 79.3013 29.6242 79.8873 30.6101 80.2965C31.596 80.7151 32.6191 80.9197 33.6795 80.929Z" fill="#00B9F1" fill-opacity="0.78"/>
<path fill-rule="evenodd" clip-rule="evenodd" d="M13.9238 46.8869C14.7423 46.8869 15.5329 46.7288 16.2956 46.4125C17.049 46.0963 17.7186 45.6498 18.2953 45.0639C18.8813 44.4779 19.3277 43.8082 19.6347 43.0455C19.9509 42.2735 20.109 41.4829 20.109 40.6551C20.109 39.8273 19.9509 39.0367 19.6347 38.2647C19.3277 37.502 18.8813 36.8324 18.2953 36.2464C17.7186 35.6604 17.049 35.214 16.2863 34.8977C15.5329 34.5815 14.7423 34.4234 13.9238 34.4234C13.096 34.4234 12.3147 34.5815 11.552 34.8977C10.7986 35.214 10.1289 35.6604 9.54294 36.2464C8.96628 36.8324 8.51982 37.5113 8.20358 38.274C7.89665 39.0367 7.73853 39.8366 7.73853 40.6551C7.73853 41.4829 7.89664 42.2828 8.21288 43.0455C8.52912 43.8082 8.97557 44.4779 9.55224 45.0639C10.1289 45.6498 10.7986 46.0963 11.5613 46.4125C12.3147 46.7288 13.1053 46.8869 13.9238 46.8869Z" fill="#8DC63F" fill-opacity="0.78"/>
<mask id="mask3_5_463" style="mask-type:luminance" maskUnits="userSpaceOnUse" x="0" y="19" width="12" height="13">
<path d="M0 19.2068H11.7287V31.1122H0V19.2068Z" fill="white"/>
</mask>
<g mask="url(#mask3_5_463)">
<path d="M10.8355 25.1688C10.8355 25.885 10.7053 26.5733 10.4263 27.2337C10.1565 27.894 9.76587 28.48 9.26361 28.9823C8.76135 29.4845 8.18468 29.8752 7.5336 30.1542C6.87322 30.424 6.19424 30.5635 5.47805 30.5635C4.77117 30.5635 4.08288 30.424 3.43181 30.1542C2.77143 29.8752 2.19476 29.4845 1.6925 28.9823C1.19024 28.48 0.799587 27.894 0.529855 27.2337C0.260123 26.5733 0.120605 25.885 0.120605 25.1688C0.120605 24.4526 0.260123 23.7643 0.529855 23.0947C0.799587 22.4343 1.19024 21.8576 1.6925 21.3461C2.19476 20.8438 2.77143 20.4531 3.43181 20.1741C4.08288 19.9044 4.77117 19.7649 5.47805 19.7649C6.19424 19.7649 6.87322 19.9044 7.5336 20.1741C8.18468 20.4531 8.76135 20.8438 9.26361 21.3461C9.76587 21.8576 10.1565 22.4343 10.4263 23.0947C10.7053 23.7643 10.8355 24.4526 10.8355 25.1688Z" fill="#FFD900" fill-opacity="0.78"/>
</g>
<path fill-rule="evenodd" clip-rule="evenodd" d="M16.7977 15.2725C17.4581 15.2725 18.0998 15.1422 18.7137 14.8911C19.3276 14.6307 19.8671 14.2679 20.3321 13.8029C20.8065 13.3285 21.1692 12.7798 21.4203 12.1659C21.6715 11.5427 21.8017 10.9009 21.8017 10.2312C21.8017 9.56156 21.6808 8.91979 21.4203 8.30591C21.1692 7.69203 20.8065 7.14327 20.3414 6.66891C19.8671 6.19455 19.3276 5.83181 18.7137 5.57138C18.1091 5.32025 17.4674 5.19003 16.807 5.19003C16.1373 5.19003 15.5048 5.32025 14.891 5.57138C14.2771 5.83181 13.7376 6.19455 13.2633 6.66891C12.7982 7.14327 12.4355 7.68273 12.1843 8.30591C11.9239 8.91979 11.803 9.56156 11.803 10.2312C11.803 10.9009 11.9332 11.5427 12.1843 12.1566C12.4355 12.7798 12.7982 13.3192 13.2633 13.7936C13.7376 14.2679 14.2771 14.6307 14.891 14.8818C15.4955 15.1422 16.1373 15.2725 16.7977 15.2725Z" fill="#009444" fill-opacity="0.78"/>
<path fill-rule="evenodd" clip-rule="evenodd" d="M18.4997 27.8383C18.9368 27.8383 19.3554 27.7546 19.7646 27.5779C20.1646 27.4104 20.518 27.1686 20.8343 26.8617C21.1412 26.5454 21.383 26.192 21.5504 25.7827C21.7179 25.3735 21.8016 24.9456 21.8016 24.5085C21.8016 24.062 21.7179 23.6435 21.5504 23.2342C21.383 22.825 21.1412 22.4622 20.8343 22.1553C20.518 21.8391 20.1646 21.5972 19.7646 21.4298C19.3554 21.2624 18.9368 21.1787 18.4997 21.1787C18.0625 21.1787 17.6347 21.2624 17.2347 21.4298C16.8255 21.5972 16.472 21.8391 16.1558 22.1553C15.8489 22.4622 15.607 22.825 15.4396 23.2342C15.2722 23.6435 15.1885 24.062 15.1885 24.5085C15.1978 24.9456 15.2815 25.3735 15.4489 25.7827C15.6163 26.1827 15.8489 26.5454 16.1651 26.8617C16.472 27.1686 16.8255 27.4104 17.2347 27.5779C17.6347 27.7453 18.0625 27.8383 18.4997 27.8383Z" fill="#56BA48" fill-opacity="0.78"/>
<mask id="mask4_5_463" style="mask-type:luminance" maskUnits="userSpaceOnUse" x="21" y="0" width="10" height="8">
<path d="M21.2527 0H30.777V7.30138H21.2527V0Z" fill="white"/>
</mask>
<g mask="url(#mask4_5_463)">
<path fill-rule="evenodd" clip-rule="evenodd" d="M25.3827 6.65961C25.8199 6.65961 26.2477 6.57589 26.6477 6.40848C27.0569 6.24106 27.4104 5.99923 27.7266 5.69229C28.0335 5.37605 28.2754 5.0133 28.4428 4.60406C28.6102 4.20411 28.6939 3.77626 28.6939 3.3298C28.6939 2.89265 28.6102 2.4648 28.4428 2.05555C28.2754 1.6556 28.0335 1.29286 27.7266 0.976618C27.4104 0.669682 27.0569 0.427851 26.6477 0.260432C26.2477 0.0930101 25.8199 0 25.3827 0C24.9456 0 24.527 0.0930101 24.1178 0.260432C23.7178 0.427851 23.3644 0.669682 23.0481 0.976618C22.7412 1.29286 22.4994 1.6556 22.3319 2.05555C22.1645 2.4648 22.0808 2.89265 22.0808 3.3298C22.0808 3.77626 22.1645 4.20411 22.3319 4.60406C22.5087 5.0133 22.7412 5.37605 23.0481 5.68299C23.3644 5.99923 23.7178 6.24106 24.1271 6.40848C24.527 6.57589 24.9456 6.65961 25.3827 6.65961Z" fill="#FBAD17" fill-opacity="0.78"/>
</g>
<path fill-rule="evenodd" clip-rule="evenodd" d="M5.09651 14.0819C5.42205 14.0819 5.74759 14.0168 6.04522 13.8866C6.35216 13.7564 6.62189 13.5797 6.85442 13.3378C7.08695 13.1053 7.27297 12.8263 7.39389 12.5193C7.5241 12.2124 7.57991 11.8962 7.57991 11.5613C7.57991 11.2265 7.5148 10.9009 7.39389 10.594C7.26367 10.2871 7.07765 10.0173 6.84512 9.7755C6.61259 9.54297 6.34286 9.36625 6.03592 9.23603C5.72899 9.10582 5.41275 9.04071 5.07791 9.04071C4.74307 9.05001 4.42683 9.10582 4.11989 9.23603C3.81295 9.36625 3.54322 9.55227 3.31069 9.7848C3.07817 10.0173 2.90144 10.2964 2.77123 10.6033C2.64101 10.9102 2.58521 11.2358 2.58521 11.5613C2.58521 11.8962 2.65031 12.2217 2.77123 12.5286C2.90144 12.8449 3.08747 13.1146 3.31999 13.3471C3.55252 13.589 3.83156 13.7657 4.13849 13.8959C4.44543 14.0261 4.76167 14.0819 5.09651 14.0819Z" fill="#F15C22" fill-opacity="0.78"/>
<path d="M64.5405 39.7995C64.5405 41.1761 64.401 42.5526 64.1312 43.9013C63.8708 45.2593 63.4708 46.58 62.95 47.8543C62.4198 49.1378 61.778 50.347 61.0153 51.5003C60.2526 52.6444 59.3876 53.714 58.4203 54.6906C57.4437 55.6672 56.3927 56.5415 55.2486 57.3042C54.1046 58.0762 52.9048 58.7273 51.6398 59.2575C50.3656 59.7783 49.0634 60.1783 47.7147 60.448C46.3754 60.7177 45.0081 60.8573 43.6408 60.8573C42.2643 60.8573 40.9063 60.7177 39.5669 60.448C38.2183 60.1783 36.9161 59.7783 35.6419 59.2575C34.3769 58.7273 33.1678 58.0762 32.033 57.3042C30.889 56.5415 29.838 55.6672 28.8614 54.6906C27.894 53.714 27.029 52.6444 26.2663 51.5003C25.5036 50.347 24.8619 49.1378 24.3317 47.8543C23.8108 46.58 23.4109 45.2593 23.1412 43.9013C22.8807 42.5526 22.7412 41.1761 22.7412 39.7995C22.7412 38.4136 22.8807 37.0464 23.1412 35.6884C23.4109 34.3304 23.8108 33.019 24.3317 31.7354C24.8619 30.4612 25.5036 29.2427 26.2663 28.0987C27.029 26.9453 27.894 25.885 28.8614 24.9084C29.838 23.9318 30.889 23.0575 32.033 22.2855C33.1678 21.5135 34.3769 20.8717 35.6419 20.3415C36.9161 19.8114 38.2183 19.4114 39.5669 19.1417C40.9063 18.872 42.2643 18.7325 43.6408 18.7325C45.0081 18.7325 46.3754 18.872 47.7147 19.1417C49.0634 19.4114 50.3656 19.8114 51.6398 20.3415C52.9048 20.8717 54.1046 21.5135 55.2486 22.2855C56.3927 23.0575 57.4437 23.9318 58.4203 24.9084C59.3876 25.885 60.2526 26.9453 61.0153 28.0987C61.778 29.2427 62.4198 30.4612 62.95 31.7354C63.4708 33.019 63.8708 34.3304 64.1312 35.6884C64.401 37.0464 64.5405 38.4136 64.5405 39.7995Z" fill="#FBAD17" fill-opacity="0.78"/>
<path fill-rule="evenodd" clip-rule="evenodd" d="M55.1834 7.91516C65.2007 9.99861 73.5904 15.0584 78.5385 22.3319C78.4455 22.9458 78.3246 23.5504 78.1665 24.1549C78.0084 24.7595 77.8131 25.3455 77.5805 25.9221C77.348 26.4988 77.0783 27.0569 76.7806 27.5963C76.4737 28.1451 76.1482 28.666 75.7761 29.1682C75.4134 29.6705 75.0134 30.1449 74.5949 30.6006C74.167 31.0471 73.7206 31.4749 73.2462 31.8656C72.7625 32.2655 72.2696 32.6283 71.7487 32.9631C71.2279 33.2979 70.6884 33.5956 70.1303 33.8653C69.5723 34.1257 68.9956 34.3583 68.4096 34.5536C67.8237 34.7489 67.2284 34.907 66.6238 35.0279C66.0099 35.1489 65.4054 35.2233 64.7915 35.2698C64.1683 35.3163 63.5544 35.3163 62.9406 35.2884C62.3174 35.2512 61.7128 35.1768 61.0989 35.0744C60.4944 34.9628 59.8991 34.814 59.3038 34.628C58.7179 34.442 58.1412 34.2187 57.5738 33.9676C57.0157 33.7072 56.467 33.4188 55.9461 33.0933C55.416 32.7678 54.9137 32.4143 54.43 32.0237C53.9464 31.633 53.4906 31.2145 53.0628 30.7773C52.6256 30.3309 52.2257 29.8565 51.8536 29.3636C51.4816 28.8706 51.1374 28.3497 50.8212 27.8103C50.5143 27.2708 50.2352 26.722 49.9934 26.1454C49.7609 25.5687 49.5469 24.9827 49.3795 24.3875C49.2121 23.7922 49.0819 23.1876 48.9889 22.5644C48.8866 21.9506 48.8308 21.3367 48.8122 20.7135C48.7935 20.0903 48.8122 19.4672 48.868 18.8533C48.9331 18.2301 49.0261 17.6162 49.1563 17.0117C49.2958 16.3978 49.4632 15.8025 49.6679 15.2165C49.8725 14.6306 50.1143 14.0632 50.3933 13.5051C50.6724 12.9471 50.9793 12.4076 51.3235 11.896C51.6676 11.3752 52.0396 10.8822 52.4396 10.4079C52.8488 9.94281 53.2767 9.49635 53.7417 9.0778C54.1975 8.65925 54.6812 8.27791 55.1834 7.91516Z" fill="#EC008B" fill-opacity="0.78"/>
<path fill-rule="evenodd" clip-rule="evenodd" d="M36.6089 30.5635C37.4274 30.5635 38.2366 30.489 39.0458 30.3216C39.855 30.1635 40.6363 29.9217 41.399 29.6054C42.1524 29.2892 42.8779 28.9079 43.5569 28.4428C44.2451 27.987 44.8776 27.4569 45.4543 26.8709C46.0403 26.2942 46.5518 25.6525 47.0169 24.9642C47.4726 24.2759 47.854 23.5504 48.1702 22.7877C48.4865 22.0157 48.719 21.2344 48.8864 20.4159C49.0445 19.6067 49.1189 18.7882 49.1189 17.9604C49.1282 17.1326 49.0445 16.3048 48.8864 15.4956C48.719 14.6864 48.4865 13.8958 48.1702 13.1331C47.854 12.3612 47.4726 11.6357 47.0169 10.9474C46.5611 10.2591 46.0403 9.62662 45.4636 9.04065C44.8776 8.45468 44.2451 7.92452 43.5662 7.46876C42.8779 7.00371 42.1617 6.62236 41.399 6.30612C40.6363 5.98989 39.855 5.74805 39.0551 5.58064C38.2459 5.42252 37.4274 5.33881 36.6089 5.33881C35.7904 5.33881 34.9719 5.42252 34.172 5.58064C33.3628 5.74805 32.5815 5.98058 31.8188 6.29682C31.0654 6.62236 30.34 7.00371 29.661 7.46876C28.9727 7.92452 28.3402 8.44538 27.7635 9.03135C27.1776 9.61732 26.6567 10.2591 26.201 10.9474C25.7452 11.6357 25.3639 12.3612 25.0476 13.1238C24.7314 13.8958 24.4988 14.6771 24.3314 15.4956C24.1733 16.3048 24.0896 17.1233 24.0896 17.9511C24.0989 18.7789 24.1733 19.5974 24.3407 20.4159C24.4988 21.2251 24.7407 22.0157 25.0476 22.7784C25.3639 23.5411 25.7545 24.2666 26.2103 24.9549C26.666 25.6432 27.1869 26.2756 27.7635 26.8616C28.3495 27.4476 28.9727 27.9684 29.661 28.4335C30.34 28.8893 31.0654 29.2799 31.8188 29.5961C32.5815 29.9217 33.3628 30.1542 34.1627 30.3216C34.9719 30.4797 35.7811 30.5635 36.6089 30.5635Z" fill="#56BA48" fill-opacity="0.78"/>
<path d="M130.273 37.3451V60.6351H124.878V51.0735H114.312V60.6351H108.917V37.3451H114.312V46.5346H124.878V37.3451H130.273Z" fill="#2C3E50"/>
<path d="M155.162 42.7397V60.6351H150.251V58.5144C149.553 59.2864 148.725 59.8817 147.758 60.3002C146.809 60.6909 145.786 60.8955 144.67 60.8955C142.336 60.8955 140.475 60.2258 139.089 58.8864C137.722 57.5285 137.043 55.5194 137.043 52.8593V42.7397H142.215V52.078C142.215 54.9614 143.424 56.3937 145.861 56.3937C147.098 56.3937 148.093 56.0031 148.837 55.2032C149.581 54.3847 149.953 53.1848 149.953 51.5944V42.7397H155.162Z" fill="#2C3E50"/>
<path d="M184.583 42.4793C186.834 42.4793 188.62 43.1397 189.94 44.4511C191.252 45.7719 191.912 47.753 191.912 50.4038V60.6351H186.741V51.1851C186.741 49.7714 186.443 48.7203 185.848 48.0227C185.253 47.3345 184.406 46.981 183.318 46.981C182.1 46.981 181.132 47.381 180.416 48.1716C179.719 48.9436 179.374 50.1062 179.374 51.6688V60.6351H174.203V51.1851C174.203 48.3855 173.059 46.981 170.78 46.981C169.59 46.981 168.632 47.381 167.915 48.1716C167.218 48.9436 166.874 50.1062 166.874 51.6688V60.6351H161.665V42.7397H166.65V44.786C167.292 44.0419 168.101 43.4745 169.069 43.0746C170.036 42.6839 171.096 42.4793 172.268 42.4793C173.533 42.4793 174.668 42.7304 175.691 43.2234C176.705 43.7256 177.523 44.4511 178.147 45.4184C178.863 44.479 179.784 43.7628 180.9 43.2606C182.035 42.7397 183.262 42.4793 184.583 42.4793Z" fill="#2C3E50"/>
<path d="M205.471 42.4793C208.242 42.4793 210.382 43.1397 211.87 44.4511C213.358 45.7719 214.102 47.7623 214.102 50.441V60.6351H209.228V58.4028C208.261 60.0677 206.447 60.8955 203.796 60.8955C202.401 60.8955 201.201 60.6723 200.188 60.2258C199.192 59.7608 198.42 59.1097 197.881 58.2912C197.36 57.4541 197.1 56.5054 197.1 55.4637C197.1 53.808 197.713 52.5059 198.96 51.5572C200.225 50.5899 202.169 50.1062 204.801 50.1062H208.893C208.893 48.9901 208.54 48.1344 207.852 47.5391C207.182 46.9252 206.159 46.609 204.801 46.609C203.834 46.609 202.885 46.7578 201.973 47.0554C201.053 47.3531 200.271 47.753 199.63 48.246L197.769 44.6371C198.737 43.9489 199.899 43.4094 201.267 43.0373C202.624 42.6653 204.029 42.4793 205.471 42.4793ZM205.099 57.3983C205.964 57.3983 206.745 57.203 207.442 56.803C208.131 56.3845 208.614 55.7799 208.893 54.98V53.157H205.359C203.22 53.157 202.159 53.8546 202.159 55.2404C202.159 55.9101 202.42 56.4496 202.941 56.8402C203.462 57.2123 204.178 57.3983 205.099 57.3983Z" fill="#2C3E50"/>
<path d="M231.373 42.4793C233.578 42.4793 235.364 43.149 236.731 44.4883C238.089 45.8091 238.777 47.7809 238.777 50.4038V60.6351H233.606V51.1851C233.606 49.7714 233.289 48.7203 232.675 48.0227C232.052 47.3345 231.15 46.981 229.96 46.981C228.639 46.981 227.597 47.3903 226.834 48.2088C226.062 49.0087 225.681 50.1992 225.681 51.7804V60.6351H220.472V42.7397H225.458V44.8232C226.127 44.0791 226.965 43.5117 227.988 43.1118C229.029 42.6932 230.155 42.4793 231.373 42.4793Z" fill="#2C3E50"/>
<path d="M256.687 61.0443C254.305 61.0443 252.148 60.542 250.213 59.5189C248.297 58.4772 246.799 57.0448 245.711 55.2032C244.614 53.3709 244.074 51.2967 244.074 48.99C244.074 46.6833 244.614 44.6278 245.711 42.8141C246.799 40.9818 248.297 39.5401 250.213 38.4983C252.148 37.4566 254.315 36.9358 256.724 36.9358C258.733 36.9358 260.537 37.2985 262.156 38.0147C263.793 38.7402 265.169 39.754 266.285 41.0655L262.825 44.265C261.263 42.4606 259.309 41.5491 256.984 41.5491C255.543 41.5491 254.25 41.8747 253.115 42.5164C251.971 43.1396 251.078 44.0232 250.436 45.158C249.813 46.2741 249.506 47.5576 249.506 48.99C249.506 50.4317 249.813 51.7245 250.436 52.8593C251.078 53.9754 251.971 54.859 253.115 55.5008C254.25 56.124 255.543 56.4309 256.984 56.4309C259.309 56.4309 261.263 55.5194 262.825 53.6778L266.285 56.8774C265.169 58.2446 263.793 59.2864 262.156 60.0026C260.519 60.6908 258.696 61.0443 256.687 61.0443Z" fill="#2C3E50"/>
<path d="M294 37.3451L283.918 60.6351H278.597L268.552 37.3451H274.356L281.462 53.9755L288.643 37.3451H294Z" fill="#2C3E50"/>
<path d="M123.753 70.8418V77.0177H122.302V74.4878H119.512V77.0177H118.098V70.8418H119.512V73.2973H122.302V70.8418H123.753Z" fill="#2C3E50"/>
<path d="M129.767 77.1294C128.893 77.1294 128.214 76.8968 127.721 76.4225C127.218 75.9295 126.977 75.2226 126.977 74.3018V70.8418H128.428V74.2646C128.428 75.3621 128.883 75.9016 129.804 75.9016C130.251 75.9016 130.585 75.7807 130.809 75.5296C131.05 75.2598 131.181 74.8413 131.181 74.2646V70.8418H132.594V74.3018C132.594 75.2226 132.343 75.9295 131.85 76.4225C131.348 76.8968 130.66 77.1294 129.767 77.1294Z" fill="#2C3E50"/>
<path d="M141.445 77.0177L141.408 73.2973L139.622 76.3481H138.952L137.166 73.4089V77.0177H135.827V70.8418H136.98L139.324 74.6739L141.594 70.8418H142.747L142.784 77.0177H141.445Z" fill="#2C3E50"/>
<path d="M150.132 75.6784H147.268L146.71 77.0177H145.259L148.012 70.8418H149.425L152.179 77.0177H150.69L150.132 75.6784ZM149.686 74.5995L148.719 72.2556L147.714 74.5995H149.686Z" fill="#2C3E50"/>
<path d="M160.313 70.8418V77.0177H159.123L156.072 73.2601V77.0177H154.658V70.8418H155.812L158.9 74.5995V70.8418H160.313Z" fill="#2C3E50"/>
<path d="M163.611 70.8418H165.024V77.0177H163.611V70.8418Z" fill="#2C3E50"/>
<path d="M173.311 75.8644V77.0177H167.916V76.0876L171.302 71.9951H167.99V70.8418H173.162V71.7719L169.813 75.8644H173.311Z" fill="#2C3E50"/>
<path d="M180.123 75.6784H177.258L176.7 77.0177H175.249L178.002 70.8418H179.416L182.169 77.0177H180.681L180.123 75.6784ZM179.677 74.5995L178.709 72.2556L177.705 74.5995H179.677Z" fill="#2C3E50"/>
<path d="M190.304 70.8418V77.0177H189.114L186.063 73.2601V77.0177H184.649V70.8418H185.803L188.89 74.5995V70.8418H190.304Z" fill="#2C3E50"/>
<path d="M193.602 70.8418H196.392C197.062 70.8418 197.657 70.9813 198.178 71.251C198.699 71.5022 199.09 71.8649 199.369 72.33C199.666 72.7764 199.815 73.3159 199.815 73.9298C199.815 74.5529 199.666 75.1017 199.369 75.5668C199.09 76.0132 198.699 76.376 198.178 76.6457C197.657 76.8968 197.062 77.0177 196.392 77.0177H193.602V70.8418ZM196.318 75.8272C196.932 75.8272 197.434 75.6691 197.806 75.3435C198.178 74.9994 198.364 74.525 198.364 73.9298C198.364 73.3345 198.178 72.8787 197.806 72.5532C197.434 72.2091 196.932 72.0323 196.318 72.0323H195.016V75.8272H196.318Z" fill="#2C3E50"/>
<path d="M205.69 77.1293C205.038 77.1293 204.462 76.9991 203.941 76.7201C203.439 76.4504 203.048 76.069 202.75 75.5667C202.453 75.0738 202.304 74.525 202.304 73.9298C202.304 73.3345 202.453 72.8043 202.75 72.33C203.048 71.837 203.439 71.4557 203.941 71.1766C204.462 70.879 205.038 70.7302 205.69 70.7302C206.331 70.7302 206.899 70.879 207.401 71.1766C207.922 71.4557 208.331 71.837 208.629 72.33C208.926 72.8043 209.075 73.3345 209.075 73.9298C209.075 74.525 208.926 75.0738 208.629 75.5667C208.331 76.069 207.922 76.4504 207.401 76.7201C206.899 76.9991 206.331 77.1293 205.69 77.1293ZM205.69 75.9016C206.062 75.9016 206.378 75.8272 206.657 75.6784C206.955 75.5109 207.187 75.2691 207.364 74.9715C207.531 74.6552 207.624 74.3018 207.624 73.9298C207.624 73.5577 207.531 73.2229 207.364 72.9252C207.187 72.609 206.955 72.3672 206.657 72.2183C206.378 72.0509 206.062 71.9579 205.69 71.9579C205.318 71.9579 204.983 72.0509 204.685 72.2183C204.406 72.3672 204.183 72.609 204.015 72.9252C203.839 73.2229 203.755 73.5577 203.755 73.9298C203.755 74.3018 203.839 74.6552 204.015 74.9715C204.183 75.2691 204.406 75.5109 204.685 75.6784C204.983 75.8272 205.318 75.9016 205.69 75.9016Z" fill="#2C3E50"/>
<path d="M218.942 70.8418C219.509 70.8418 219.993 70.9441 220.393 71.1394C220.784 71.3162 221.1 71.5766 221.323 71.9207C221.546 72.2463 221.658 72.6276 221.658 73.0741C221.658 73.5484 221.546 73.9577 221.323 74.3018C221.1 74.6274 220.784 74.8785 220.393 75.0459C219.993 75.2226 219.509 75.3063 218.942 75.3063H217.714V77.0177H216.301V70.8418H218.942ZM218.868 74.153C219.314 74.153 219.649 74.0693 219.872 73.8926C220.095 73.6972 220.207 73.4275 220.207 73.0741C220.207 72.7299 220.095 72.4695 219.872 72.2928C219.649 72.0974 219.314 71.9951 218.868 71.9951H217.714V74.153H218.868Z" fill="#2C3E50"/>
<path d="M228.488 77.0177L227.297 75.3063H225.995V77.0177H224.582V70.8418H227.223C227.79 70.8418 228.274 70.9441 228.674 71.1394C229.065 71.3162 229.381 71.5766 229.604 71.9207C229.827 72.2463 229.939 72.6276 229.939 73.0741C229.939 73.5484 229.827 73.9577 229.604 74.3018C229.381 74.6274 229.055 74.8785 228.637 75.0459L230.051 77.0177H228.488ZM228.488 73.0741C228.488 72.7299 228.376 72.4695 228.153 72.2928C227.93 72.0974 227.595 71.9951 227.149 71.9951H225.995V74.153H227.149C227.595 74.153 227.93 74.0693 228.153 73.8926C228.376 73.6972 228.488 73.4275 228.488 73.0741Z" fill="#2C3E50"/>
<path d="M235.866 77.1293C235.215 77.1293 234.638 76.9991 234.117 76.7201C233.615 76.4504 233.225 76.069 232.927 75.5667C232.629 75.0738 232.48 74.525 232.48 73.9298C232.48 73.3345 232.629 72.8043 232.927 72.33C233.225 71.837 233.615 71.4557 234.117 71.1766C234.638 70.879 235.215 70.7302 235.866 70.7302C236.508 70.7302 237.075 70.879 237.577 71.1766C238.098 71.4557 238.508 71.837 238.805 72.33C239.103 72.8043 239.252 73.3345 239.252 73.9298C239.252 74.525 239.103 75.0738 238.805 75.5667C238.508 76.069 238.098 76.4504 237.577 76.7201C237.075 76.9991 236.508 77.1293 235.866 77.1293ZM235.866 75.9016C236.238 75.9016 236.554 75.8272 236.833 75.6784C237.131 75.5109 237.364 75.2691 237.54 74.9715C237.708 74.6552 237.801 74.3018 237.801 73.9298C237.801 73.5577 237.708 73.2229 237.54 72.9252C237.364 72.609 237.131 72.3672 236.833 72.2183C236.554 72.0509 236.238 71.9579 235.866 71.9579C235.494 71.9579 235.159 72.0509 234.862 72.2183C234.583 72.3672 234.359 72.609 234.192 72.9252C234.015 73.2229 233.931 73.5577 233.931 73.9298C233.931 74.3018 234.015 74.6552 234.192 74.9715C234.359 75.2691 234.583 75.5109 234.862 75.6784C235.159 75.8272 235.494 75.9016 235.866 75.9016Z" fill="#2C3E50"/>
<path d="M245.099 77.1293C244.476 77.1293 243.908 76.9991 243.387 76.7201C242.885 76.4504 242.495 76.0783 242.197 75.604C241.899 75.111 241.75 74.5529 241.75 73.9298C241.75 73.3159 241.899 72.7671 242.197 72.2928C242.495 71.7998 242.885 71.4184 243.387 71.1394C243.908 70.8697 244.476 70.7302 245.099 70.7302C245.638 70.7302 246.122 70.8325 246.55 71.0278C246.996 71.2045 247.368 71.4743 247.666 71.8463L246.736 72.6648C246.308 72.1997 245.787 71.9579 245.173 71.9579C244.801 71.9579 244.466 72.0509 244.169 72.2183C243.871 72.3672 243.629 72.609 243.462 72.9252C243.285 73.2229 243.201 73.5577 243.201 73.9298C243.201 74.3018 243.285 74.6552 243.462 74.9715C243.629 75.2691 243.871 75.5109 244.169 75.6784C244.466 75.8272 244.801 75.9016 245.173 75.9016C245.787 75.9016 246.308 75.6598 246.736 75.1575L247.666 76.0132C247.368 76.3852 246.996 76.6736 246.55 76.8689C246.122 77.0363 245.638 77.1293 245.099 77.1293Z" fill="#2C3E50"/>
<path d="M255.212 75.8644V77.0177H250.45V70.8418H255.1V71.9951H251.863V73.3345H254.728V74.4506H251.863V75.8644H255.212Z" fill="#2C3E50"/>
<path d="M260.202 77.1293C259.728 77.1293 259.253 77.0642 258.788 76.9433C258.342 76.7945 257.979 76.6271 257.709 76.4225L258.193 75.3435C258.435 75.5481 258.751 75.7063 259.123 75.8272C259.495 75.9295 259.848 75.976 260.202 75.976C260.62 75.976 260.918 75.9202 261.095 75.79C261.29 75.6691 261.392 75.5109 261.392 75.3063C261.392 75.1575 261.327 75.0459 261.206 74.9715C261.104 74.8785 260.965 74.8041 260.797 74.7483C260.62 74.6738 260.369 74.5994 260.053 74.525C259.579 74.4041 259.197 74.2925 258.9 74.1902C258.602 74.0693 258.342 73.8925 258.118 73.6693C257.914 73.4275 257.821 73.0926 257.821 72.6648C257.821 72.2928 257.914 71.9765 258.118 71.6975C258.314 71.3998 258.602 71.1673 258.974 70.9906C259.365 70.8232 259.848 70.7302 260.425 70.7302C260.816 70.7302 261.206 70.786 261.578 70.879C261.951 70.9813 262.267 71.1208 262.546 71.2882L262.137 72.3672C261.56 72.0509 260.993 71.8835 260.425 71.8835C260.025 71.8835 259.728 71.9486 259.532 72.0695C259.328 72.1997 259.235 72.3672 259.235 72.5904C259.235 72.8136 259.346 72.981 259.569 73.074C259.793 73.1764 260.128 73.2787 260.574 73.3717C261.039 73.474 261.43 73.5856 261.727 73.7065C262.025 73.8088 262.285 73.9856 262.509 74.2274C262.732 74.4785 262.843 74.8041 262.843 75.1947C262.843 75.5667 262.741 75.9016 262.546 76.1992C262.341 76.4783 262.044 76.7015 261.653 76.8689C261.253 77.0363 260.769 77.1293 260.202 77.1293Z" fill="#2C3E50"/>
<path d="M267.653 77.1293C267.179 77.1293 266.704 77.0642 266.239 76.9433C265.793 76.7945 265.43 76.6271 265.16 76.4225L265.644 75.3435C265.886 75.5481 266.202 75.7063 266.574 75.8272C266.946 75.9295 267.3 75.976 267.653 75.976C268.072 75.976 268.369 75.9202 268.546 75.79C268.741 75.6691 268.844 75.5109 268.844 75.3063C268.844 75.1575 268.779 75.0459 268.658 74.9715C268.555 74.8785 268.416 74.8041 268.248 74.7483C268.072 74.6738 267.821 74.5994 267.504 74.525C267.03 74.4041 266.649 74.2925 266.351 74.1902C266.053 74.0693 265.793 73.8925 265.57 73.6693C265.365 73.4275 265.272 73.0926 265.272 72.6648C265.272 72.2928 265.365 71.9765 265.57 71.6975C265.765 71.3998 266.053 71.1673 266.425 70.9906C266.816 70.8232 267.3 70.7302 267.876 70.7302C268.267 70.7302 268.658 70.786 269.03 70.879C269.402 70.9813 269.718 71.1208 269.997 71.2882L269.588 72.3672C269.011 72.0509 268.444 71.8835 267.876 71.8835C267.476 71.8835 267.179 71.9486 266.983 72.0695C266.779 72.1997 266.686 72.3672 266.686 72.5904C266.686 72.8136 266.797 72.981 267.021 73.074C267.244 73.1764 267.579 73.2787 268.025 73.3717C268.49 73.474 268.881 73.5856 269.178 73.7065C269.476 73.8088 269.737 73.9856 269.96 74.2274C270.183 74.4785 270.295 74.8041 270.295 75.1947C270.295 75.5667 270.192 75.9016 269.997 76.1992C269.792 76.4783 269.495 76.7015 269.104 76.8689C268.704 77.0363 268.22 77.1293 267.653 77.1293Z" fill="#2C3E50"/>
<path d="M276.072 77.1293C275.421 77.1293 274.845 76.9991 274.324 76.7201C273.822 76.4504 273.431 76.069 273.133 75.5667C272.836 75.0738 272.687 74.525 272.687 73.9298C272.687 73.3345 272.836 72.8043 273.133 72.33C273.431 71.837 273.822 71.4557 274.324 71.1766C274.845 70.879 275.421 70.7302 276.072 70.7302C276.714 70.7302 277.282 70.879 277.784 71.1766C278.305 71.4557 278.714 71.837 279.012 72.33C279.309 72.8043 279.458 73.3345 279.458 73.9298C279.458 74.525 279.309 75.0738 279.012 75.5667C278.714 76.069 278.305 76.4504 277.784 76.7201C277.282 76.9991 276.714 77.1293 276.072 77.1293ZM276.072 75.9016C276.444 75.9016 276.761 75.8272 277.04 75.6784C277.337 75.5109 277.57 75.2691 277.747 74.9715C277.914 74.6552 278.007 74.3018 278.007 73.9298C278.007 73.5577 277.914 73.2229 277.747 72.9252C277.57 72.609 277.337 72.3672 277.04 72.2183C276.761 72.0509 276.444 71.9579 276.072 71.9579C275.7 71.9579 275.365 72.0509 275.068 72.2183C274.789 72.3672 274.566 72.609 274.398 72.9252C274.221 73.2229 274.138 73.5577 274.138 73.9298C274.138 74.3018 274.221 74.6552 274.398 74.9715C274.566 75.2691 274.789 75.5109 275.068 75.6784C275.365 75.8272 275.7 75.9016 276.072 75.9016Z" fill="#2C3E50"/>
<path d="M284.375 77.1293C283.9 77.1293 283.426 77.0642 282.961 76.9433C282.515 76.7945 282.152 76.6271 281.882 76.4225L282.366 75.3435C282.608 75.5481 282.924 75.7063 283.296 75.8272C283.668 75.9295 284.021 75.976 284.375 75.976C284.793 75.976 285.091 75.9202 285.268 75.79C285.463 75.6691 285.565 75.5109 285.565 75.3063C285.565 75.1575 285.5 75.0459 285.379 74.9715C285.277 74.8785 285.137 74.8041 284.97 74.7483C284.793 74.6738 284.542 74.5994 284.226 74.525C283.752 74.4041 283.37 74.2925 283.073 74.1902C282.775 74.0693 282.515 73.8925 282.291 73.6693C282.087 73.4275 281.994 73.0926 281.994 72.6648C281.994 72.2928 282.087 71.9765 282.291 71.6975C282.487 71.3998 282.775 71.1673 283.147 70.9906C283.538 70.8232 284.021 70.7302 284.598 70.7302C284.989 70.7302 285.379 70.786 285.751 70.879C286.123 70.9813 286.44 71.1208 286.719 71.2882L286.309 72.3672C285.733 72.0509 285.165 71.8835 284.598 71.8835C284.198 71.8835 283.9 71.9486 283.705 72.0695C283.5 72.1997 283.407 72.3672 283.407 72.5904C283.407 72.8136 283.519 72.981 283.742 73.074C283.966 73.1764 284.3 73.2787 284.747 73.3717C285.212 73.474 285.603 73.5856 285.9 73.7065C286.198 73.8088 286.458 73.9856 286.681 74.2274C286.905 74.4785 287.016 74.8041 287.016 75.1947C287.016 75.5667 286.914 75.9016 286.719 76.1992C286.514 76.4783 286.216 76.7015 285.826 76.8689C285.426 77.0363 284.942 77.1293 284.375 77.1293Z" fill="#2C3E50"/>
</svg>
