<?xml version="1.0" encoding="utf-8" standalone="yes"?>
<!DOCTYPE svg PUBLIC "-//W3C//DTD SVG 1.1//EN" "http://www.w3.org/Graphics/SVG/1.1/DTD/svg11.dtd">
<svg width="696" height="423" viewBox="0 0 696 423" style="fill:none;stroke:none;fill-rule:evenodd;clip-rule:evenodd;stroke-linecap:round;stroke-linejoin:round;stroke-miterlimit:1.5;" version="1.1" xmlns="http://www.w3.org/2000/svg" xmlns:xlink="http://www.w3.org/1999/xlink"><style id="fontImports">@import url("https://fonts.googleapis.com/css2?family=Roboto:wght@400;700&amp;display=block");</style><g id="items" style="isolation: isolate"><g id="blend" style="mix-blend-mode:normal"><g id="g-root--1.cu_sy_meuk3s1x4r3eo-fill" data-item-order="999847942" data-item-id="-1.cu_sy_meuk3s1x4r3eo" data-item-class="Part Fill Stroke ColorFillGray ColorStrokeGray" data-item-index="-1" data-renderer-id="0" transform="translate(302, 9)"><g id="-1.cu_sy_meuk3s1x4r3eo-fill" stroke="none" fill="#f6f6f6"><g><path d="M 65.766602 394C 80.754802 394 106.000002 308.039 106.000002 202C 106.000002 95.9613 80.754802 10 65.766602 10C 80.775202 10.01 92.941702 96.2224 92.941702 202C 92.941702 307.778 80.775202 393.99 65.766602 394ZM 65.765897 394C 80.774597 393.99 92.941097 307.778 92.941097 202C 92.941097 96.2224 80.774597 10.01 65.765897 10L 51.957397 10C 66.060697 16.8878 77.199297 100.4719 77.199297 202C 77.199297 303.528 65.382597 387.112 51.279297 394L 65.765897 394ZM 77.2 202C 77.2 303.528 65.3833 387.112 51.28 394L 50.0615 394C 35.0734 394 10 308.039 10 202C 10 95.9613 35.0734 10 50.0615 10C 50.6991 10 51.9581 10 51.9581 10C 66.0614 16.8878 77.2 100.4719 77.2 202Z"></path></g></g></g><g id="g-root-0.cr-medium_cr_93e1qg1x4r4zl-fill" data-item-order="999847946" data-item-id="0.cr-medium_cr_93e1qg1x4r4zl" data-item-class="Shape Stroke Fill Part Indexed_0" data-item-index="0" data-renderer-id="0" transform="translate(470, 165)"><g id="0.cr-medium_cr_93e1qg1x4r4zl-fill" stroke="none" fill="#f0f0f0"><g><path d="M 10 46C 10 65.882251 26.117749 82 46 82C 65.882251 82 82 65.882251 82 46C 82 26.117749 65.882251 10 46 10C 26.117749 10 10 26.117749 10 46"></path></g></g></g><g id="g-root-5.line_sy_93e1qg1x4r4zm-fill" data-item-order="999847953" data-item-id="5.line_sy_93e1qg1x4r4zm" data-item-class="Curve Stroke Part Indexed" data-item-index="5" data-renderer-id="0" transform="translate(218, 243)"></g><g id="g-root-5.cr-small_cr_7r1hk1x4r5sb-fill" data-item-order="999847954" data-item-id="5.cr-small_cr_7r1hk1x4r5sb" data-item-class="Shape Stroke Fill Part Indexed" data-item-index="5" data-renderer-id="0" transform="translate(158, 339.00006103515625)"><g id="5.cr-small_cr_7r1hk1x4r5sb-fill" stroke="none" fill="#f7e6fe"><g><path d="M 10 40C 10.000002 56.568544 23.431459 70.000002 40.000002 70.000002C 56.568544 70.000002 70.000002 56.568544 70.000002 40.000002C 70.000002 23.431459 56.568544 10.000002 40.000002 10.000002C 23.431459 10.000002 10.000002 23.431459 10.000002 40.000002"></path></g></g></g><g id="g-root-4.line_sy_7r1hk1x4r5sc-fill" data-item-order="999847961" data-item-id="4.line_sy_7r1hk1x4r5sc" data-item-class="Curve Stroke Part Indexed" data-item-index="4" data-renderer-id="0" transform="translate(218, 225)"></g><g id="g-root-4.cr-small_cr_1uto2fc1x4r37p-fill" data-item-order="999847962" data-item-id="4.cr-small_cr_1uto2fc1x4r37p" data-item-class="Shape Stroke Fill Part Indexed" data-item-index="4" data-renderer-id="0" transform="translate(158, 255)"><g id="4.cr-small_cr_1uto2fc1x4r37p-fill" stroke="none" fill="#e6efff"><g><path d="M 10 40C 10.000002 56.568544 23.431459 70.000002 40.000002 70.000002C 56.568544 70.000002 70.000002 56.568544 70.000002 40.000002C 70.000002 23.431459 56.568544 10.000002 40.000002 10.000002C 23.431459 10.000002 10.000002 23.431459 10.000002 40.000002"></path></g></g></g><g id="g-root-3.line_sy_1ly126g1x4r40e-fill" data-item-order="999847969" data-item-id="3.line_sy_1ly126g1x4r40e" data-item-class="Curve Stroke Part Indexed" data-item-index="3" data-renderer-id="0" transform="translate(218.10940551757812, 201)"></g><g id="g-root-3.cr-small_cr_1hi7k201x4r4sn-fill" data-item-order="999847970" data-item-id="3.cr-small_cr_1hi7k201x4r4sn" data-item-class="Shape Stroke Fill Part Indexed" data-item-index="3" data-renderer-id="0" transform="translate(158, 171)"><g id="3.cr-small_cr_1hi7k201x4r4sn-fill" stroke="none" fill="#e9fbf3"><g><path d="M 10 40C 10.000002 56.568544 23.431459 70.000002 40.000002 70.000002C 56.568544 70.000002 70.000002 56.568544 70.000002 40.000002C 70.000002 23.431459 56.568544 10.000002 40.000002 10.000002C 23.431459 10.000002 10.000002 23.431459 10.000002 40.000002"></path></g></g></g><g id="g-root-2.line_sy_1d2e1xk1x4r5kw-fill" data-item-order="999847977" data-item-id="2.line_sy_1d2e1xk1x4r5kw" data-item-class="Curve Stroke Part Indexed" data-item-index="2" data-renderer-id="0" transform="translate(218, 117)"></g><g id="g-root-2.cr-small_cr_147dirs1x4r37t-fill" data-item-order="999847978" data-item-id="2.cr-small_cr_147dirs1x4r37t" data-item-class="Shape Stroke Fill Part Indexed" data-item-index="2" data-renderer-id="0" transform="translate(158, 87)"><g id="2.cr-small_cr_147dirs1x4r37t-fill" stroke="none" fill="#ffe7e6"><g><path d="M 10 40C 10.000002 56.568544 23.431459 70.000002 40.000002 70.000002C 56.568544 70.000002 70.000002 56.568544 70.000002 40.000002C 70.000002 23.431459 56.568544 10.000002 40.000002 10.000002C 23.431459 10.000002 10.000002 23.431459 10.000002 40.000002"></path></g></g></g><g id="g-root-1.line_sy_zrk0nc1x4r402-fill" data-item-order="999847985" data-item-id="1.line_sy_zrk0nc1x4r402" data-item-class="Curve Stroke Part Indexed Indexed_1" data-item-index="1" data-renderer-id="0" transform="translate(218, 33)"></g><g id="g-root-1.cr-small_cr_zrk0nc1x4r403-fill" data-item-order="999847986" data-item-id="1.cr-small_cr_zrk0nc1x4r403" data-item-class="Shape Stroke Fill Part Indexed Indexed_1" data-item-index="1" data-renderer-id="0" transform="translate(158, 3)"><g id="1.cr-small_cr_zrk0nc1x4r403-fill" stroke="none" fill="#fffce6"><g><path d="M 10 40C 10.000002 56.568544 23.431459 70.000002 40.000002 70.000002C 56.568544 70.000002 70.000002 56.568544 70.000002 40.000002C 70.000002 23.431459 56.568544 10.000002 40.000002 10.000002C 23.431459 10.000002 10.000002 23.431459 10.000002 40.000002"></path></g></g></g><g id="g-root-1_hu1cg81x4k4xx-fill" data-item-order="1000000000" data-item-id="1_hu1cg81x4k4xx" data-item-class="Icon Stroke Indexed Indexed_1 InsideFill InsideColorFill" data-item-index="1" data-renderer-id="0" transform="translate(170, 15)"></g><g id="g-root-tx_empatia_1ltntqg1x4k2de-fill" data-item-order="1000000000" data-item-id="tx_empatia_1ltntqg1x4k2de" data-item-class="Label Stroke Indexed" data-item-index="2" data-renderer-id="0" transform="translate(62, 105)"><g id="tx_empatia_1ltntqg1x4k2de-fill" stroke="none" fill="#484848"><g><text style="font: 20px Roboto, sans-serif; white-space: pre;" font-size="20px" font-family="Roboto, sans-serif"><tspan x="18.73" y="34" dominant-baseline="ideographic">Empatia</tspan></text></g></g></g><g id="g-root-hear_v98m6g1x50xs7-fill" data-item-order="1000000000" data-item-id="hear_v98m6g1x50xs7" data-item-class="Icon Stroke Indexed InsideFill InsideColorFill" data-item-index="2" data-renderer-id="0" transform="translate(170, 99)"></g><g id="g-root-tx_flexibil_1q8uurs1x4k4qx-fill" data-item-order="1000000000" data-item-id="tx_flexibil_1q8uurs1x4k4qx" data-item-class="Label Stroke Indexed" data-item-index="3" data-renderer-id="0" transform="translate(26, 189)"><g id="tx_flexibil_1q8uurs1x4k4qx-fill" stroke="none" fill="#484848"><g><text style="font: 20px Roboto, sans-serif; white-space: pre;" font-size="20px" font-family="Roboto, sans-serif"><tspan x="16.91" y="34" dominant-baseline="ideographic">Flexibilidade</tspan></text></g></g></g><g id="g-root-6_1cwrs5k1x4zk05-fill" data-item-order="1000000000" data-item-id="6_1cwrs5k1x4zk05" data-item-class="Icon Stroke Indexed InsideFill InsideColorFill" data-item-index="3" data-renderer-id="0" transform="translate(170, 183)"></g><g id="g-root-2_qnsuaw1w0wyrk-fill" data-item-order="1000000000" data-item-id="2_qnsuaw1w0wyrk" data-item-class="Icon Stroke InsideFill" data-item-index="none" data-renderer-id="0" transform="translate(482, 177)"></g><g id="g-root-tx_serviohu_8z0tag1x4k2ku-fill" data-item-order="1000000000" data-item-id="tx_serviohu_8z0tag1x4k2ku" data-item-class="Label Stroke" data-item-index="none" data-renderer-id="0" transform="translate(554, 177)"><g id="tx_serviohu_8z0tag1x4k2ku-fill" stroke="none" fill="#484848"><g><text style="font: 20px Roboto, sans-serif; white-space: pre;" font-size="20px" font-family="Roboto, sans-serif"><tspan x="12" y="34" dominant-baseline="ideographic">Serviço </tspan><tspan x="12" y="58" dominant-baseline="ideographic">Humanizado</tspan></text></g></g></g><g id="g-root-netw_qp1sg81x4wq9t-fill" data-item-order="1000000000" data-item-id="netw_qp1sg81x4wq9t" data-item-class="Icon Stroke Indexed InsideFill InsideColorFill" data-item-index="5" data-renderer-id="0" transform="translate(170, 351)"></g><g id="g-root-tx_acessibi_3dt1k1x4k45c-fill" data-item-order="1000000000" data-item-id="tx_acessibi_3dt1k1x4k45c" data-item-class="Label Stroke Indexed" data-item-index="4" data-renderer-id="0" transform="translate(2, 273)"><g id="tx_acessibi_3dt1k1x4k45c-fill" stroke="none" fill="#484848"><g><text style="font: 20px Roboto, sans-serif; white-space: pre;" font-size="20px" font-family="Roboto, sans-serif"><tspan x="22.59" y="34" dominant-baseline="ideographic">Acessibilidade</tspan></text></g></g></g><g id="g-root-t_m97l2g1xoggef-fill" data-item-order="1000000000" data-item-id="t_m97l2g1xoggef" data-item-class="Icon Stroke Indexed InsideFill InsideColorFill" data-item-index="4" data-renderer-id="0" transform="translate(170, 267)"></g><g id="g-root-tx_ambiente_4j7b601x4k3d3-fill" data-item-order="1000000000" data-item-id="tx_ambiente_4j7b601x4k3d3" data-item-class="Label Stroke Indexed" data-item-index="5" data-renderer-id="0" transform="translate(26, 345)"><g id="tx_ambiente_4j7b601x4k3d3-fill" stroke="none" fill="#484848"><g><text style="font: 20px Roboto, sans-serif; white-space: pre;" font-size="20px" font-family="Roboto, sans-serif"><tspan x="15.75" y="34" dominant-baseline="ideographic">Ambiente de </tspan><tspan x="76.06" y="58" dominant-baseline="ideographic">Apoio</tspan></text></g></g></g><g id="g-root-tx_atenoper_18i7bd41x4k3yb-fill" data-item-order="1000000000" data-item-id="tx_atenoper_18i7bd41x4k3yb" data-item-class="Label Stroke Indexed Indexed_1" data-item-index="1" data-renderer-id="0" transform="translate(14, 9)"><g id="tx_atenoper_18i7bd41x4k3yb-fill" stroke="none" fill="#484848"><g><text style="font: 20px Roboto, sans-serif; white-space: pre;" font-size="20px" font-family="Roboto, sans-serif"><tspan x="66.19" y="34" dominant-baseline="ideographic">Atenção </tspan><tspan x="13.84" y="58" dominant-baseline="ideographic">Personalizada</tspan></text></g></g></g><g id="g-root--1.cu_sy_meuk3s1x4r3eo-stroke" data-item-order="999847942" data-item-id="-1.cu_sy_meuk3s1x4r3eo" data-item-class="Part Fill Stroke ColorFillGray ColorStrokeGray" data-item-index="-1" data-renderer-id="0" transform="translate(302, 9)"><g id="-1.cu_sy_meuk3s1x4r3eo-stroke" fill="none" stroke-linecap="round" stroke-linejoin="round" stroke-miterlimit="4" stroke="#888888" stroke-width="2"><g><path d="M 65.766602 394C 80.754802 394 106.000002 308.0387 106.000002 202C 106.000002 95.9613 80.754802 10 65.766602 10C 80.775202 10.01 92.941702 96.2224 92.941702 202C 92.941702 307.7776 80.775202 393.99 65.766602 394ZM 65.765897 394C 80.774597 393.99 92.941097 307.7776 92.941097 202C 92.941097 96.2224 80.774597 10.01 65.765897 10L 51.957397 10C 66.060697 16.8878 77.199297 100.4719 77.199297 202C 77.199297 303.5282 65.382597 387.1122 51.279297 394L 65.765897 394ZM 77.2 202C 77.2 303.5282 65.3833 387.1122 51.28 394L 50.0615 394C 35.0734 394 10 308.0387 10 202C 10 95.9613 35.0734 10 50.0615 10C 50.6991 10 51.9581 10 51.9581 10C 66.0614 16.8878 77.2 100.4719 77.2 202Z"></path></g></g></g><g id="g-root-0.cr-medium_cr_93e1qg1x4r4zl-stroke" data-item-order="999847946" data-item-id="0.cr-medium_cr_93e1qg1x4r4zl" data-item-class="Shape Stroke Fill Part Indexed_0" data-item-index="0" data-renderer-id="0" transform="translate(470, 165)"><g id="0.cr-medium_cr_93e1qg1x4r4zl-stroke" fill="none" stroke-linecap="round" stroke-linejoin="round" stroke-miterlimit="4" stroke="#484848" stroke-width="2"><g><path d="M 10 46C 10 65.882251 26.117749 82 46 82C 65.882251 82 82 65.882251 82 46C 82 26.117749 65.882251 10 46 10C 26.117749 10 10 26.117749 10 46"></path></g></g></g><g id="g-root-5.line_sy_93e1qg1x4r4zm-stroke" data-item-order="999847953" data-item-id="5.line_sy_93e1qg1x4r4zm" data-item-class="Curve Stroke Part Indexed" data-item-index="5" data-renderer-id="0" transform="translate(218, 243)"><g id="5.line_sy_93e1qg1x4r4zm-stroke" fill="none" stroke-linecap="round" stroke-linejoin="round" stroke-miterlimit="4" stroke="#b65edf" stroke-width="2"><g><path d="M 272.49 11.320007L 130 136.000007L 10 136.000007"></path><path d="M 272.3 20.120007L 272.9 11.020007L 263.7 10.420007" stroke-dasharray="none"></path></g></g></g><g id="g-root-5.cr-small_cr_7r1hk1x4r5sb-stroke" data-item-order="999847954" data-item-id="5.cr-small_cr_7r1hk1x4r5sb" data-item-class="Shape Stroke Fill Part Indexed" data-item-index="5" data-renderer-id="0" transform="translate(158, 339.00006103515625)"><g id="5.cr-small_cr_7r1hk1x4r5sb-stroke" fill="none" stroke-linecap="round" stroke-linejoin="round" stroke-miterlimit="4" stroke="#b65edf" stroke-width="2"><g><path d="M 10 40C 10.000002 56.568544 23.431459 70.000002 40.000002 70.000002C 56.568544 70.000002 70.000002 56.568544 70.000002 40.000002C 70.000002 23.431459 56.568544 10.000002 40.000002 10.000002C 23.431459 10.000002 10.000002 23.431459 10.000002 40.000002"></path></g></g></g><g id="g-root-4.line_sy_7r1hk1x4r5sc-stroke" data-item-order="999847961" data-item-id="4.line_sy_7r1hk1x4r5sc" data-item-class="Curve Stroke Part Indexed" data-item-index="4" data-renderer-id="0" transform="translate(218, 225)"><g id="4.line_sy_7r1hk1x4r5sc-stroke" fill="none" stroke-linecap="round" stroke-linejoin="round" stroke-miterlimit="4" stroke="#4682e3" stroke-width="2"><g><path d="M 254.19 10.859985L 130 69.999985L 10 69.999985"></path><path d="M 251.6 19.259985L 254.6 10.659985L 246 7.559985" stroke-dasharray="none"></path></g></g></g><g id="g-root-4.cr-small_cr_1uto2fc1x4r37p-stroke" data-item-order="999847962" data-item-id="4.cr-small_cr_1uto2fc1x4r37p" data-item-class="Shape Stroke Fill Part Indexed" data-item-index="4" data-renderer-id="0" transform="translate(158, 255)"><g id="4.cr-small_cr_1uto2fc1x4r37p-stroke" fill="none" stroke-linecap="round" stroke-linejoin="round" stroke-miterlimit="4" stroke="#4682e3" stroke-width="2"><g><path d="M 10 40C 10.000002 56.568544 23.431459 70.000002 40.000002 70.000002C 56.568544 70.000002 70.000002 56.568544 70.000002 40.000002C 70.000002 23.431459 56.568544 10.000002 40.000002 10.000002C 23.431459 10.000002 10.000002 23.431459 10.000002 40.000002"></path></g></g></g><g id="g-root-3.line_sy_1ly126g1x4r40e-stroke" data-item-order="999847969" data-item-id="3.line_sy_1ly126g1x4r40e" data-item-class="Curve Stroke Part Indexed" data-item-index="3" data-renderer-id="0" transform="translate(218.10940551757812, 201)"><g id="3.line_sy_1ly126g1x4r40e-stroke" fill="none" stroke-linecap="round" stroke-linejoin="round" stroke-miterlimit="4" stroke="#3bc482" stroke-width="2"><g><path d="M 247.89058 10L 129.89058 10L 10.00058 10"></path><path d="M 241.90058 16.5L 248.40058 10L 241.90058 3.5" stroke-dasharray="none"></path></g></g></g><g id="g-root-3.cr-small_cr_1hi7k201x4r4sn-stroke" data-item-order="999847970" data-item-id="3.cr-small_cr_1hi7k201x4r4sn" data-item-class="Shape Stroke Fill Part Indexed" data-item-index="3" data-renderer-id="0" transform="translate(158, 171)"><g id="3.cr-small_cr_1hi7k201x4r4sn-stroke" fill="none" stroke-linecap="round" stroke-linejoin="round" stroke-miterlimit="4" stroke="#3bc482" stroke-width="2"><g><path d="M 10 40C 10.000002 56.568544 23.431459 70.000002 40.000002 70.000002C 56.568544 70.000002 70.000002 56.568544 70.000002 40.000002C 70.000002 23.431459 56.568544 10.000002 40.000002 10.000002C 23.431459 10.000002 10.000002 23.431459 10.000002 40.000002"></path></g></g></g><g id="g-root-2.line_sy_1d2e1xk1x4r5kw-stroke" data-item-order="999847977" data-item-id="2.line_sy_1d2e1xk1x4r5kw" data-item-class="Curve Stroke Part Indexed" data-item-index="2" data-renderer-id="0" transform="translate(218, 117)"><g id="2.line_sy_1d2e1xk1x4r5kw-stroke" fill="none" stroke-linecap="round" stroke-linejoin="round" stroke-miterlimit="4" stroke="#e15e5a" stroke-width="2"><g><path d="M 254.19 69.14L 130 10L 10 10"></path><path d="M 246 72.4L 254.6 69.4L 251.6 60.7" stroke-dasharray="none"></path></g></g></g><g id="g-root-2.cr-small_cr_147dirs1x4r37t-stroke" data-item-order="999847978" data-item-id="2.cr-small_cr_147dirs1x4r37t" data-item-class="Shape Stroke Fill Part Indexed" data-item-index="2" data-renderer-id="0" transform="translate(158, 87)"><g id="2.cr-small_cr_147dirs1x4r37t-stroke" fill="none" stroke-linecap="round" stroke-linejoin="round" stroke-miterlimit="4" stroke="#e15e5a" stroke-width="2"><g><path d="M 10 40C 10.000002 56.568544 23.431459 70.000002 40.000002 70.000002C 56.568544 70.000002 70.000002 56.568544 70.000002 40.000002C 70.000002 23.431459 56.568544 10.000002 40.000002 10.000002C 23.431459 10.000002 10.000002 23.431459 10.000002 40.000002"></path></g></g></g><g id="g-root-1.line_sy_zrk0nc1x4r402-stroke" data-item-order="999847985" data-item-id="1.line_sy_zrk0nc1x4r402" data-item-class="Curve Stroke Part Indexed Indexed_1" data-item-index="1" data-renderer-id="0" transform="translate(218, 33)"><g id="1.line_sy_zrk0nc1x4r402-stroke" fill="none" stroke-linecap="round" stroke-linejoin="round" stroke-miterlimit="4" stroke="#e3cd09" stroke-width="2"><g><path d="M 272.49 134.68L 130 10L 10 10"></path><path d="M 263.7 135.6L 272.9 135L 272.3 125.8" stroke-dasharray="none"></path></g></g></g><g id="g-root-1.cr-small_cr_zrk0nc1x4r403-stroke" data-item-order="999847986" data-item-id="1.cr-small_cr_zrk0nc1x4r403" data-item-class="Shape Stroke Fill Part Indexed Indexed_1" data-item-index="1" data-renderer-id="0" transform="translate(158, 3)"><g id="1.cr-small_cr_zrk0nc1x4r403-stroke" fill="none" stroke-linecap="round" stroke-linejoin="round" stroke-miterlimit="4" stroke="#e3cd09" stroke-width="2"><g><path d="M 10 40C 10.000002 56.568544 23.431459 70.000002 40.000002 70.000002C 56.568544 70.000002 70.000002 56.568544 70.000002 40.000002C 70.000002 23.431459 56.568544 10.000002 40.000002 10.000002C 23.431459 10.000002 10.000002 23.431459 10.000002 40.000002"></path></g></g></g><g id="g-root-1_hu1cg81x4k4xx-stroke" data-item-order="1000000000" data-item-id="1_hu1cg81x4k4xx" data-item-class="Icon Stroke Indexed Indexed_1 InsideFill InsideColorFill" data-item-index="1" data-renderer-id="0" transform="translate(170, 15)"><g id="1_hu1cg81x4k4xx-stroke" fill="none" stroke-linecap="round" stroke-linejoin="round" stroke-miterlimit="4" stroke="#e3cd09" stroke-width="2"><g><path d="M 31.465 12.3685C 38.762497 13.2835 44.965 19.4305 44.965 26.876501C 44.965103 31.540188 42.735081 35.922737 38.965 38.667999L 38.965 45.25M 16.465 34L 16.465 33.25L 13 33.25C 12.76051 33.249187 12.535809 33.134056 12.395265 32.94014C 12.25472 32.746223 12.215236 32.496849 12.289 32.269001C 15.1525 23.398001 17.213501 13.858 26.965 12.433M 23.965 45.25L 23.965 42.25L 20.965 42.25C 20.501942 42.250153 20.041597 42.179329 19.599998 42.039997M 26.965 10.7515L 31.465 10.7515L 31.465 24.251501L 26.965 24.251501ZM 26.965 29.501501C 26.965 30.744141 27.972359 31.751501 29.215 31.751501C 30.457642 31.751501 31.465 30.744141 31.465 29.501501C 31.465 28.25886 30.457642 27.251501 29.215 27.251501C 27.972359 27.251501 26.965 28.25886 26.965 29.501501ZM 31.42 23.118999C 34.535923 24.195541 36.418396 27.365341 35.872593 30.616501C 35.326794 33.867657 32.512405 36.248955 29.21575 36.248955C 25.919096 36.248955 23.104708 33.867657 22.558905 30.616501C 22.013102 27.365341 23.895576 24.195541 27.011501 23.118999M 13.465 37.001499L 17.965 37.001499L 17.965 40.751499L 13.465 40.751499ZM 28.532499 31.645C 25.948 35.778999 21.592001 38.876499 17.965 38.876499"></path></g></g></g><g id="g-root-tx_empatia_1ltntqg1x4k2de-stroke" data-item-order="1000000000" data-item-id="tx_empatia_1ltntqg1x4k2de" data-item-class="Label Stroke Indexed" data-item-index="2" data-renderer-id="0" transform="translate(62, 105)"></g><g id="g-root-hear_v98m6g1x50xs7-stroke" data-item-order="1000000000" data-item-id="hear_v98m6g1x50xs7" data-item-class="Icon Stroke Indexed InsideFill InsideColorFill" data-item-index="2" data-renderer-id="0" transform="translate(170, 99)"><g id="hear_v98m6g1x50xs7-stroke" fill="none" stroke-linecap="round" stroke-linejoin="round" stroke-miterlimit="4" stroke="#e15e5a" stroke-width="2"><g><path d="M 28.008999 28.489L 19.370501 19.476999C 17.813812 17.92153 17.427664 15.544209 18.412001 13.576L 18.411999 13.576C 19.147005 12.106699 20.543568 11.080343 22.165314 10.817631C 23.78706 10.554917 25.436222 11.087885 26.5975 12.25L 28.008999 13.66L 29.4205 12.25C 30.581989 11.087994 32.231316 10.555263 33.853088 10.818276C 35.474861 11.08129 36.871284 12.107973 37.606003 13.5775L 37.605999 13.5775C 38.589752 15.545544 38.204311 17.92223 36.649002 19.4785ZM 15.25 45.25L 12.229 41.474499C 11.271277 40.277267 10.749664 38.789665 10.75 37.2565L 10.75 29.5C 10.75 28.25736 11.75736 27.25 13 27.25L 13 27.25C 14.242641 27.25 15.25 28.25736 15.25 29.5L 15.25 35.3125M 22.75 45.046001L 22.75 40.546001C 22.751228 39.211128 22.356022 37.905964 21.6145 36.796001C 18.782499 33.849998 17.899 32.420498 16.186001 33.563499L 16.186001 33.563499C 15.304562 34.150799 14.998449 35.302582 15.472 36.25L 17.5 39.625M 40.75 45.25L 43.771 41.474499C 44.728722 40.277267 45.250336 38.789665 45.25 37.2565L 45.25 29.5C 45.25 28.25736 44.242641 27.25 43 27.25L 43 27.25C 41.757362 27.25 40.75 28.25736 40.75 29.5L 40.75 35.3125M 33.25 45.046001L 33.25 40.546001C 33.248772 39.211128 33.643978 37.905964 34.385498 36.796001C 37.217499 33.844002 38.100998 32.4175 39.813999 33.560501L 39.813999 33.560501C 40.695438 34.1478 41.001549 35.29958 40.528 36.246998L 38.5 39.625"></path></g></g></g><g id="g-root-tx_flexibil_1q8uurs1x4k4qx-stroke" data-item-order="1000000000" data-item-id="tx_flexibil_1q8uurs1x4k4qx" data-item-class="Label Stroke Indexed" data-item-index="3" data-renderer-id="0" transform="translate(26, 189)"></g><g id="g-root-6_1cwrs5k1x4zk05-stroke" data-item-order="1000000000" data-item-id="6_1cwrs5k1x4zk05" data-item-class="Icon Stroke Indexed InsideFill InsideColorFill" data-item-index="3" data-renderer-id="0" transform="translate(170, 183)"><g id="6_1cwrs5k1x4zk05-stroke" fill="none" stroke-linecap="round" stroke-linejoin="round" stroke-miterlimit="4" stroke="#3bc482" stroke-width="2"><g><path d="M 11.125 18.967001C 16.375 16.336 21.25 15.967 28 18.967001C 34.75 21.967001 39.628002 21.599499 44.875 18.967001L 40.213001 17.144501M 11.125 28C 16.375 25.368999 21.25 25 28 28C 34.75 31 39.628002 30.631001 44.875 28L 40.213001 26.1775M 11.125 37.032997C 16.375 34.400501 21.25 34.032997 28 37.032997C 34.75 40.032997 39.628002 39.663998 44.875 37.032997L 40.213001 35.209"></path></g></g></g><g id="g-root-2_qnsuaw1w0wyrk-stroke" data-item-order="1000000000" data-item-id="2_qnsuaw1w0wyrk" data-item-class="Icon Stroke InsideFill" data-item-index="none" data-renderer-id="0" transform="translate(482, 177)"><g id="2_qnsuaw1w0wyrk-stroke" fill="none" stroke-linecap="round" stroke-linejoin="round" stroke-miterlimit="4" stroke="#484848" stroke-width="2"><g><path d="M 27.142857 18.571428C 27.142857 22.358524 30.212906 25.428572 34 25.428572C 37.787094 25.428572 40.857143 22.358524 40.857143 18.571428C 40.857143 14.784333 37.787094 11.714286 34 11.714286C 30.212906 11.714286 27.142857 14.784333 27.142857 18.571428M 18.571428 27.142857C 27.714287 34 40.285717 34 49.428574 27.142859M 39.142857 31.702858L 39.142857 46L 28.857143 46L 28.857143 31.702858M 28.857143 46L 28.857143 56.285713M 39.142857 46L 39.142857 56.285713"></path></g></g></g><g id="g-root-tx_serviohu_8z0tag1x4k2ku-stroke" data-item-order="1000000000" data-item-id="tx_serviohu_8z0tag1x4k2ku" data-item-class="Label Stroke" data-item-index="none" data-renderer-id="0" transform="translate(554, 177)"></g><g id="g-root-netw_qp1sg81x4wq9t-stroke" data-item-order="1000000000" data-item-id="netw_qp1sg81x4wq9t" data-item-class="Icon Stroke Indexed InsideFill InsideColorFill" data-item-index="5" data-renderer-id="0" transform="translate(170, 351)"><g id="netw_qp1sg81x4wq9t-stroke" fill="none" stroke-linecap="round" stroke-linejoin="round" stroke-miterlimit="4" stroke="#b65edf" stroke-width="2"><g><path d="M 35.516499 20.5315L 40.177002 15.901M 39.266499 13.7515C 39.266499 15.408355 40.609646 16.751499 42.266499 16.751499C 43.923355 16.751499 45.266499 15.408355 45.266499 13.7515C 45.266499 12.094646 43.923355 10.7515 42.266499 10.7515C 40.609646 10.7515 39.266499 12.094646 39.266499 13.7515ZM 36.959499 36.970001L 40.130501 40.161999M 39.279999 42.251499C 39.279999 43.908356 40.623146 45.251499 42.279999 45.251499C 43.936852 45.251499 45.279999 43.908356 45.279999 42.251499C 45.279999 40.594646 43.936852 39.251499 42.279999 39.251499C 40.623146 39.251499 39.279999 40.594646 39.279999 42.251499ZM 20.5165 20.5315L 15.8545 15.901M 10.7665 13.7515C 10.7665 15.408355 12.109646 16.751499 13.7665 16.751499C 15.423354 16.751499 16.7665 15.408355 16.7665 13.7515C 16.7665 12.094646 15.423354 10.7515 13.7665 10.7515C 12.109646 10.7515 10.7665 12.094646 10.7665 13.7515ZM 19.0735 36.970001L 15.901 40.161999M 10.75 42.251499C 10.75 43.908356 12.093145 45.251499 13.75 45.251499C 15.406855 45.251499 16.75 43.908356 16.75 42.251499C 16.75 40.594646 15.406855 39.251499 13.75 39.251499C 12.093145 39.251499 10.75 40.594646 10.75 42.251499ZM 34.766499 27.251501L 39.266499 27.251501M 39.266499 27.251501C 39.266499 28.908356 40.609646 30.251501 42.266499 30.251501C 43.923355 30.251501 45.266499 28.908356 45.266499 27.251501C 45.266499 25.594646 43.923355 24.251501 42.266499 24.251501C 40.609646 24.251501 39.266499 25.594646 39.266499 27.251501ZM 21.2665 27.251501L 16.7665 27.251501M 10.7665 27.251501C 10.7665 28.908356 12.109646 30.251501 13.7665 30.251501C 15.423354 30.251501 16.7665 28.908356 16.7665 27.251501C 16.7665 25.594646 15.423354 24.251501 13.7665 24.251501C 12.109646 24.251501 10.7665 25.594646 10.7665 27.251501ZM 28.030001 35.5C 28.237106 35.5 28.405001 35.667892 28.405001 35.875C 28.405001 36.082108 28.237106 36.25 28.030001 36.25C 27.822893 36.25 27.655001 36.082108 27.655001 35.875C 27.654598 35.775421 27.693979 35.679802 27.764393 35.60939C 27.834805 35.538979 27.930422 35.499599 28.029999 35.5M 23.530001 25C 23.530342 22.752583 25.18877 20.849983 27.41511 20.542891C 29.641447 20.235798 31.753023 21.618378 32.361774 23.78178C 32.970528 25.945183 31.889793 28.226034 29.83 29.125C 28.736237 29.602358 28.029421 30.682606 28.030001 31.875999L 28.030001 32.5"></path></g></g></g><g id="g-root-tx_acessibi_3dt1k1x4k45c-stroke" data-item-order="1000000000" data-item-id="tx_acessibi_3dt1k1x4k45c" data-item-class="Label Stroke Indexed" data-item-index="4" data-renderer-id="0" transform="translate(2, 273)"></g><g id="g-root-t_m97l2g1xoggef-stroke" data-item-order="1000000000" data-item-id="t_m97l2g1xoggef" data-item-class="Icon Stroke Indexed InsideFill InsideColorFill" data-item-index="4" data-renderer-id="0" transform="translate(170, 267)"><g id="t_m97l2g1xoggef-stroke" fill="none" stroke-linecap="round" stroke-linejoin="round" stroke-miterlimit="4" stroke="#4682e3" stroke-width="2"><g><path d="M 19.048 39.773502C 20.525658 41.626778 23.046303 42.28738 25.242992 41.397064C 27.439682 40.506752 28.789118 38.277607 28.5595 35.918499L 28.549 35.828499C 28.345482 34.11005 29.054138 32.410072 30.418001 31.345001C 32.723183 29.521696 33.869236 26.599253 33.417999 23.695C 32.728649 19.526993 29.006046 16.550465 24.7885 16.795C 21.558819 17.009703 18.759811 19.109398 17.650002 22.150002M 32.378498 14.5675L 32.378498 14.5675C 34.989723 15.221413 37.028587 17.260275 37.682499 19.8715L 37.682499 19.8715M 33.0145 10.75L 33.0145 10.75C 37.193371 11.793757 40.456242 15.056628 41.5 19.2355L 41.5 19.2355M 20.659 22.953999C 21.308037 21.346403 22.844475 20.273151 24.577236 20.216984C 26.309998 20.160816 27.912714 21.132311 28.664499 22.6945C 28.949032 23.296801 29.087774 23.957624 29.0695 24.623501M 13.711 35.633499L 15.1165 37.038998M 10.75 38.594498L 12.1555 40M 22.594 26.7505L 23.9995 28.156M 19.632999 29.7115L 21.0385 31.117001M 15.2665 31.267L 19.483 35.483501M 43 45.25L 43 39.25M 45.25 39.25L 40.75 39.25"></path></g></g></g><g id="g-root-tx_ambiente_4j7b601x4k3d3-stroke" data-item-order="1000000000" data-item-id="tx_ambiente_4j7b601x4k3d3" data-item-class="Label Stroke Indexed" data-item-index="5" data-renderer-id="0" transform="translate(26, 345)"></g><g id="g-root-tx_atenoper_18i7bd41x4k3yb-stroke" data-item-order="1000000000" data-item-id="tx_atenoper_18i7bd41x4k3yb" data-item-class="Label Stroke Indexed Indexed_1" data-item-index="1" data-renderer-id="0" transform="translate(14, 9)"></g></g></g></svg>